<svg xmlns="http://www.w3.org/2000/svg" xmlns:xlink="http://www.w3.org/1999/xlink" xmlns:inkscape="http://www.inkscape.org/namespaces/inkscape" version="1.1" width="42.36" height="13.919983" viewBox="0 0 42.36 13.919983">
<defs>
<clipPath id="clip_0">
<path transform="matrix(1,0,0,-1,-90,760.92)" d="M90 747H132.36V760.92H90Z" clip-rule="evenodd"/>
</clipPath>
<clipPath id="clip_1">
<path transform="matrix(1,0,0,-1,-90,760.92)" d="M.000008871 0H595.32V841.92H.000008871Z" clip-rule="evenodd"/>
</clipPath>
<path id="font_2_17616" d="M.48199464 .7120056C.5039978 .7120056 .52983096 .7051697 .559494 .6914978 .5891673 .6778361 .6040039 .6566722 .6040039 .628006 .6040039 .6160024 .601003 .60633346 .5950012 .598999 .58899948 .5916646 .5809987 .58799746 .57099917 .58799746 .5609996 .58799746 .5491638 .5944977 .53549197 .60749819 .52183029 .62049868 .5069987 .63849899 .4909973 .661499 .47499595 .6844991 .46699525 .69799807 .46699525 .70199587 .46699525 .708669 .47199504 .7120056 .48199464 .7120056M.33200074 .5090027C.34466554 .5083313 .3603312 .5079956 .3789978 .5079956 .3976644 .5079956 .41233317 .5086619 .42300416 .5099945L.5359955 .52900698C.60066226 .5396678 .6416626 .5468292 .6589966 .55049136 .67633059 .55416366 .69466146 .55599978 .71398928 .55599978 .7333272 .55599978 .7506612 .55299887 .7659912 .5469971 .78133139 .5409953 .78900149 .5343272 .78900149 .5269928 .78900149 .5196686 .7823334 .513504 .7689972 .50849917 .755661 .50350448 .73715719 .50050356 .7134857 .49949647 .6898244 .49849955 .6426595 .49483238 .57199099 .48849488 .5013326 .48216758 .4561666 .47750346 .43649293 .47450257 .41682945 .47150169 .399999 .47000123 .3860016 .47000123 .37200419 .47000123 .3576711 .47200013 .34300233 .47599793 .34233094 .44866435 .33433024 .39116416 .31900025 .3034973 .30367027 .21583049 .27633668 .13782756 .23699951 .069488529 .19766236 .001159668 .15866089-.048166913 .11999512-.07849121 .081329349-.10882568 .056666059-.12399292 .04600525-.12399292 .043340047-.12399292 .042007448-.122161868 .042007448-.118499759 .042007448-.11483765 .04733785-.107671108 .057998659-.09700012 .10066223-.05499776 .1403249-.0009969076 .1769867 .06500244 .21365865 .13100179 .24016316 .20000203 .25650025 .27200318 .2728373 .3440043 .28100587 .39650474 .28100587 .4295044 .28100587 .46250407 .27817283 .4840037 .2725067 .4940033 .2668406 .50400289 .26400758 .5119985 .26400758 .5179901 .26400758 .5239919 .26900736 .5269928 .27900697 .5269928 .28900657 .5269928 .30667115 .5209961 .33200074 .5090027M.5850067 .018005372C.68233749 .028004965 .7383321 .034001668 .7529907 .035995485 .7676595 .03799947 .78133139 .039001466 .79400637 .039001466 .82599899 .039001466 .85366317 .031667074 .8769989 .016998291 .90033468 .0023295086 .91200259-.010335286 .91200259-.020996094 .91200259-.031667074 .90033468-.037002565 .8769989-.037002565 .8630015-.037002565 .8463338-.03466797 .82699587-.02999878 .8043315-.024668375 .7386627-.022003174 .6299896-.022003174 .5213267-.022003174 .42566429-.031000773 .34300233-.04899597 .32767234-.052993776 .3128357-.054992677 .29849244-.054992677 .28415934-.054992677 .26882426-.049992879 .25248719-.039993287 .23616028-.029993693 .22799683-.021825156 .22799683-.015487671 .22799683-.009160359 .23366292-.005996704 .24499512-.005996704L.27600099-.007003784C.32800294-.007003784 .41367088-.0006713867 .53300479 .011993408L.5379944 .20700073C.49266563 .20300293 .4608307 .20100403 .44248963 .20100403 .42415873 .20100403 .40932719 .20416768 .397995 .210495 .3866628 .21683248 .3809967 .22216797 .3809967 .22650147 .3809967 .23083496 .3873291 .23366802 .3999939 .23500061 .43332926 .23766582 .47932945 .24433391 .5379944 .25500489 .5379944 .34100343 .53333029 .39033509 .5240021 .40299989 .5153351 .41433207 .5110016 .42349754 .5110016 .43049623 .5110016 .4374949 .51616927 .44099427 .5265045 .44099427 .5368398 .44099427 .5545044 .43582664 .5794983 .42549134 .6045024 .41516624 .6170044 .40333558 .6170044 .3899994 .6170044 .3839976 .6140035 .37199403 .6080017 .35398866 .60199996 .33599345 .59733077 .30633036 .59399417 .2649994 .6359965 .27633158 .6671651 .28199769 .6875 .28199769 .7078349 .28199769 .7233327 .2786611 .73399356 .27198792 .7446645 .26532493 .75 .25882469 .75 .25248719 .75 .24615987 .7421672 .23999532 .72650149 .23399353 .71083578 .22800191 .66566976 .2206726 .5910034 .21200562L.5850067 .018005372Z"/>
<path id="font_2_16911" d="M.5740051 .6589966C.5740051 .6470032 .57117208 .63567098 .565506 .625 .5598399 .61432906 .5505066 .60899356 .5375061 .60899356 .5245056 .60899356 .50483706 .6276601 .47850038 .6649933 .4521637 .7023265 .43899537 .7243245 .43899537 .73098757 .43899537 .7376607 .44332887 .7409973 .45199586 .7409973 .47399903 .7409973 .49983216 .7339986 .52949526 .7200012 .5591685 .70600387 .5740051 .68566897 .5740051 .6589966M.24699402 .54600527C.2629954 .54666647 .30766297 .55133059 .3809967 .55999758L.59599307 .58599856C.665329 .59400436 .7091624 .59950259 .7274933 .6024933 .74583438 .6054942 .7590027 .6083272 .7669983 .61099246 .7750041 .6136678 .7813365 .6150055 .7859955 .6150055 .8073273 .6150055 .83399459 .6005046 .8659973 .5715027 .89800009 .5425008 .91400149 .5213318 .91400149 .5079956 .91400149 .4986674 .9056651 .4936676 .8889923 .49299623 .85366317 .4916636 .81333419 .48266603 .7680054 .46600343 .7553304 .46066285 .74716189 .45799256 .74349978 .45799256 .73983767 .45799256 .7380066 .45932517 .7380066 .46199037 .7380066 .46466575 .7413381 .4706675 .7480011 .47999574 .7726695 .5113271 .78500369 .5328267 .78500369 .5444946 .78500369 .55616256 .76900228 .56199648 .7369995 .56199648 .7036641 .56199648 .65549728 .5591634 .5924988 .5534973 .5295003 .54783126 .46749879 .5401662 .40649415 .5305023 .34549967 .52083846 .30599977 .51600649 .28799439 .51600649 .26999919 .51600649 .2569987 .51700338 .24899292 .5189972 .24366252 .46832786 .23282878 .4313253 .2164917 .4079895 .2001648 .3846639 .18533325 .3730011 .17199707 .3730011 .16400147 .3730011 .15750122 .3780009 .15249634 .3880005 .14750164 .3980001 .14500427 .40783183 .14500427 .41749574 .14500427 .4271698 .14950054 .43767295 .15849304 .44900514 .16749573 .4603373 .17799378 .4790039 .18998719 .5050049 .20199077 .53100588 .20899455 .55000308 .21099854 .56199648 .21366374 .58000186 .21899414 .5890045 .22698975 .5890045 .23499553 .5890045 .24166362 .57467147 .24699402 .54600527M.54499819 .27200318C.59233096 .27933757 .6283315 .28616844 .6529999 .29249574 .6776683 .29883323 .70033267 .30200196 .72099307 .30200196 .7536672 .30200196 .7805023 .29533387 .8014984 .28199769 .8224945 .2686615 .83299258 .25649516 .83299258 .24549866 .83299258 .23450215 .8193309 .2290039 .79200747 .2290039 .7813365 .2290039 .7641652 .23066712 .7404938 .23399353 .71683248 .23733013 .6875 .23899842 .65249636 .23899842 .61750289 .23899842 .58300277 .23733013 .548996 .23399353 .55700179 .16866558 .56100466 .10983276 .56100466 .057495119 .56100466 .005167643 .5590007-.031163535 .5549927-.051498414 .5509949-.07183329 .54349777-.092168178 .5325012-.11250305 .5215047-.13283794 .5113373-.14750164 .5019989-.15649414 .49267069-.16549683 .48483787-.16999817 .47850038-.16999817 .47216288-.16999817 .46366374-.16466777 .45300294-.15400696 .42700196-.124669399 .39266969-.09566752 .3500061-.06700134 .34267173-.062332155 .33900453-.057998659 .33900453-.054000856 .33900453-.05000305 .34183757-.04800415 .34750367-.04800415 .35316978-.04800415 .3653361-.049835206 .3840027-.053497316 .40266929-.057169599 .42016603-.059005739 .43649293-.059005739 .45283-.059005739 .46549989-.0535024 .47450257-.042495729 .48350526-.031499227 .49050395-.013336182 .49549867 .011993408 .50050356 .03733317 .503006 .07183329 .503006 .115493778 .503006 .15916443 .5016683 .19666545 .49899293 .22799683 .47766114 .226003 .4103292 .21366883 .29699708 .19099427 .27633668 .18699646 .25816856 .18499756 .24249268 .18499756 .22682698 .18499756 .21132915 .19066365 .19599915 .20199585 .18066915 .21332805 .17300415 .22132874 .17300415 .22599793 .17300415 .23066712 .17900086 .23266602 .19099427 .23199463H.20700073C.2596639 .23199463 .35533143 .2426656 .4940033 .26400758 .4880015 .31599937 .47566734 .35432945 .45700074 .3789978 .43033854 .375 .40900675 .3730011 .39300538 .3730011 .377004 .3730011 .3619995 .37616477 .34799195 .38249208 .33399455 .38882957 .32699586 .3943329 .32699586 .39900209 .32699586 .40367127 .33399964 .40700279 .3480072 .40899659 .42200218 .41700236 .4916687 .43066917 .55700686 .44999696 .5710042 .45466615 .5851695 .45700074 .59950259 .45700074 .61383566 .45700074 .6286672 .4541677 .6439972 .4485016 .65933737 .44283549 .66700747 .43533326 .66700747 .42599488 .66700747 .41666667 .66000369 .41100059 .6459961 .40899659L.4880066 .3829956C.5060018 .3723348 .51882937 .3630015 .52648928 .35499574 .53415939 .34700013 .53849288 .33966575 .53948977 .33299256 .5404968 .32632957 .54233297 .30599977 .54499819 .27200318Z"/>
<path id="font_2_13624" d="M.5980072 .5529938C.64999899 .4996694 .6963298 .45800273 .7369995 .42799378 .77766928 .397995 .8148346 .37566123 .8484955 .36099244 .88216659 .34633384 .92599996 .33066813 .9799957 .31399537 .9919993 .30999757 .9980011 .3061625 .9980011 .30249024 .9980011 .29882813 .9956665 .29633079 .9909973 .29499818 .9863281 .29366557 .9683278 .29100038 .93699648 .28700257 .9056651 .28300477 .8789978 .28100587 .8569946 .28100587 .83500167 .28100587 .816335 .28616844 .8009949 .29649354 .78566488 .30682884 .7539978 .3374939 .70599368 .38848878 .6579997 .4394938 .6180013 .4876658 .58599856 .53300479 .55599978 .4756724 .5189972 .42200218 .47499085 .37199403 .43099467 .32199607 .3936615 .28699748 .36299134 .2669983 .33233134 .2469991 .31200157 .23699951 .30200196 .23699951 .29866538 .23699951 .29699708 .23849996 .29699708 .24150086 .29699708 .24450176 .30099998 .24966939 .30900575 .25700379 .3743337 .31433616 .4308319 .3816681 .47850038 .45899964 .5261688 .5363312 .55000308 .5966644 .55000308 .6399994L.5469971 .66700747C.5469971 .677007 .55232748 .68200686 .5629883 .68200686 .57365927 .68200686 .5889943 .6746724 .60899356 .66000369 .62900289 .6453349 .63900759 .6323344 .63900759 .6210022 .63900759 .6170044 .6373393 .6126709 .6340027 .6080017 .6219991 .5920003 .6100006 .57366439 .5980072 .5529938M.23300171 .3829956C.19566854 .33166505 .16016643 .29133097 .12649536 .2619934 .09283447 .23266602 .071004237 .21800232 .06100464 .21800232 .05766805 .21800232 .055999757 .21983338 .055999757 .22349549 .055999757 .22716777 .059331258 .2323354 .06599426 .23899842 .10533142 .28100077 .15133159 .34450279 .20399475 .4295044 .2566681 .51450607 .28300477 .57900497 .28300477 .6230011 .28300477 .6296641 .28250123 .6353302 .28149415 .6399994 .28049723 .6446686 .27999879 .6486664 .27999879 .6519928 .27999879 .66266378 .28499858 .66799929 .29499818 .66799929 .30499778 .66799929 .3204956 .6596629 .3414917 .6429901 .36249797 .6263275 .3730011 .61266586 .3730011 .602005 .3730011 .5966644 .3706665 .59199526 .3659973 .58799746 .3559977 .57933047 .34233094 .55899557 .32499696 .5269928 .29833476 .48033143 .27400209 .44133506 .2519989 .41000367 .26533509 .39933268 .274999 .38983155 .2809906 .38150025 .2869924 .37316896 .2899933 .3643341 .2899933 .35499574 .2899933 .3456675 .28915916 .33399964 .28749085 .31999208 .28583274 .30599467 .28483583 .28349305 .28450013 .25248719 .28416444 .2214915 .28399659 .139328 .28399659 .005996704 .28399659-.04733785 .2793274-.08100382 .269989-.09500122 .2606608-.10899862 .25282798-.115997318 .24649048-.115997318 .24016316-.115997318 .23316448-.10649618 .22549439-.0874939 .21783448-.06850179 .21400452-.049504598 .21400452-.03050232 .21400452-.011500041 .21700032 .004664103 .22299195 .017990113 .22899373 .031326295 .23416138 .058827718 .23849488 .100494388 .24282837 .14216106 .24499512 .18499756 .24499512 .2290039 .24499512 .30299888 .24099732 .35432945 .23300171 .3829956M.5269928 .125C.5263316 .102996829 .526001 .08099365 .526001 .05899048 .526001 .03699748 .5283305 .018997193 .5329895 .004989624 .5376587-.0090077719 .54799398-.01950582 .56399539-.026504517 .57999679-.033503217 .6031647-.037002565 .63349917-.037002565 .6638336-.037002565 .6901652-.034332277 .7124939-.0289917 .73483279-.023661295 .75016787-.012166341 .75849917 .005493164 .76683047 .023162842 .7766622 .05166626 .7879944 .09100342 .79066976 .09967041 .7945048 .104003909 .7994995 .104003909 .8045044 .104003909 .80733749 .09933472 .80799868 .08999634 .8100026 .052663167 .8138377 .022664389 .8195038 0 .82516989-.022664389 .8280029-.03532918 .8280029-.037994386 .8280029-.05399577 .8128357-.06882731 .7825012-.08248901 .75216677-.09616089 .7126668-.102996829 .66400149-.102996829 .6153361-.102996829 .57866927-.09766134 .55400088-.08699036 .52933248-.07632955 .5119985-.06199646 .5019989-.04399109 .4919993-.02599589 .4869995 .0030008953 .4869995 .042999269L.4880066 .16000366C.4880066 .2333374 .48516847 .27583314 .4794922 .28749085 .47382609 .29915873 .47099305 .3081614 .47099305 .3144989 .47099305 .3208364 .47499085 .32400514 .48298646 .32400514 .49099223 .32400514 .5036621 .31817118 .5209961 .3065033 .5383301 .29483543 .5469971 .28450013 .5469971 .27549745 .5469971 .26649476 .5448303 .25299073 .5404968 .23498535 .53616335 .21699016 .5323334 .18899536 .52900698 .15100098 .6156667 .19900513 .6636658 .2363383 .67300418 .2630005 .67700198 .27433268 .68200179 .27999879 .68800356 .27999879 .6940053 .27999879 .70683798 .2726644 .72650149 .2579956 .746165 .24332683 .7559967 .23199463 .7559967 .22399903 .7559967 .22066243 .7533315 .21799724 .7480011 .21600342 .71267196 .20467122 .6735026 .18916829 .63049319 .16949463 .5874939 .14983113 .5529938 .13499959 .5269928 .125Z"/>
<clipPath id="clip_3">
<path transform="matrix(1,0,0,-1,-90,760.92)" d="M.000008871 0H595.32V841.92H.000008871Z" clip-rule="evenodd"/>
</clipPath>
<path id="font_4_3" d="M0 0Z"/>
</defs>
<g>
<g clip-path="url(#clip_0)">
<g clip-path="url(#clip_1)">
<use data-text="&#x5e84;" xlink:href="#font_2_17616" transform="matrix(13.98,0,0,-13.98,.019996643,10.799988)"/>
<use data-text="&#x5b87;" xlink:href="#font_2_16911" transform="matrix(13.98,0,0,-13.98,14.059998,10.799988)"/>
<use data-text="&#x4f26;" xlink:href="#font_2_13624" transform="matrix(13.98,0,0,-13.98,28.099999,10.799988)"/>
<use data-text="&#x5e84;" xlink:href="#font_2_17616" stroke-width=".028571533" stroke-linecap="butt" stroke-miterlimit="10" stroke-linejoin="miter" transform="matrix(13.98,0,0,-13.98,.019996643,10.799988)" fill="none" stroke="#000000"/>
<use data-text="&#x5b87;" xlink:href="#font_2_16911" stroke-width=".028571533" stroke-linecap="butt" stroke-miterlimit="10" stroke-linejoin="miter" transform="matrix(13.98,0,0,-13.98,14.059998,10.799988)" fill="none" stroke="#000000"/>
<use data-text="&#x4f26;" xlink:href="#font_2_13624" stroke-width=".028571533" stroke-linecap="butt" stroke-miterlimit="10" stroke-linejoin="miter" transform="matrix(13.98,0,0,-13.98,28.099999,10.799988)" fill="none" stroke="#000000"/>
</g>
<g clip-path="url(#clip_3)">
<use data-text=" " xlink:href="#font_4_3" transform="matrix(13.98,0,0,-13.98,42.08,10.799988)"/>
<use data-text=" " xlink:href="#font_4_3" stroke-width=".028571533" stroke-linecap="butt" stroke-miterlimit="10" stroke-linejoin="miter" transform="matrix(13.98,0,0,-13.98,42.08,10.799988)" fill="none" stroke="#000000"/>
</g>
</g>
</g>
</svg>
